# xmcd
#
# Track frame offsets:
#	150
#	15492
#	31537
#	47550
#	64210
#	81120
#	98460
#	116825
#	133440
#	151175
#	166797
#	182932
#
# Disc length: 2628 seconds
#
# Revision: 4
# Processed by: cddbd v1.5.2PL0 Copyright (c) Steve Scherf et al.
# Submitted via: EZCDAudioConverter 7.1.0.1
#
DISCID=8e0a420c
DTITLE=MAURÍCIO and MAURI - VOL - 04 - (AMOR NO CARRO) [CD CO63010743-2) CONTINE
DTITLE=NTAL
DYEAR=1995
DGENRE=SERTANEJO
TTITLE0=AMOR NO CARRO (BY GILMAR SINISTRO)
TTITLE1=SEM VOCÊ AQUI (BY GILMAR SINISTRO)
TTITLE2=NÃO DIGA ADEUS JAMAIS (BY GILMAR SINISTRO)
TTITLE3=DESEJANDO VOCÊ (BY GILMAR SINISTRO)
TTITLE4=O MUNDO É TÃO PEQUENO (BY GILMAR SINISTRO)
TTITLE5=TENTA ME PERDOAR (BY GILMAR SINISTRO)
TTITLE6=RIO OU NOVA YORK (BY GILMAR SINISTRO)
TTITLE7=CHUVA E SOLIDÃO (BY GILMAR SINISTRO)
TTITLE8=O MESMO CARA (BY GILMAR SINISTRO)
TTITLE9=VOLTA POR FAVOR (BY GILMAR SINISTRO)
TTITLE10=DE CABEÇA E CORAÇÃO (BY GILMAR SINISTRO)
TTITLE11=JUNTOS (BY GILMAR SINISTRO)
EXTD=
EXTT0=
EXTT1=
EXTT2=
EXTT3=
EXTT4=
EXTT5=
EXTT6=
EXTT7=
EXTT8=
EXTT9=
EXTT10=
EXTT11=
PLAYORDER=
